<svg xmlns="http://www.w3.org/2000/svg" viewBox="0 0 240 240" width="240" height="240">
  <g fill="#D85A30">
    <path d="M120 26 C143 60 143 86 120 102 C97 86 97 60 120 26 Z"/>
    <path d="M120 26 C143 60 143 86 120 102 C97 86 97 60 120 26 Z" transform="rotate(45 120 120)"/>
    <path d="M120 26 C143 60 143 86 120 102 C97 86 97 60 120 26 Z" transform="rotate(90 120 120)"/>
    <path d="M120 26 C143 60 143 86 120 102 C97 86 97 60 120 26 Z" transform="rotate(135 120 120)"/>
    <path d="M120 26 C143 60 143 86 120 102 C97 86 97 60 120 26 Z" transform="rotate(180 120 120)"/>
    <path d="M120 26 C143 60 143 86 120 102 C97 86 97 60 120 26 Z" transform="rotate(225 120 120)"/>
    <path d="M120 26 C143 60 143 86 120 102 C97 86 97 60 120 26 Z" transform="rotate(270 120 120)"/>
    <path d="M120 26 C143 60 143 86 120 102 C97 86 97 60 120 26 Z" transform="rotate(315 120 120)"/>
  </g>
</svg>
